<?xml version="1.0" encoding="utf-8"?>
<!-- Generator: Adobe Illustrator 23.0.1, SVG Export Plug-In . SVG Version: 6.00 Build 0)  -->
<svg version="1.1" id="Layer_1" xmlns="http://www.w3.org/2000/svg" xmlns:xlink="http://www.w3.org/1999/xlink" x="0px" y="0px"
	 viewBox="0 0 270.64 445.28" style="enable-background:new 0 0 270.64 445.28;" xml:space="preserve">
<style type="text/css">
	.st0{fill:#1AA1CA;stroke:#000000;stroke-width:3;stroke-miterlimit:10;}
	.st1{fill:#EC2024;stroke:#000000;stroke-width:3;stroke-miterlimit:10;}
	.st2{fill:#189D49;stroke:#000000;stroke-width:3;stroke-linecap:round;stroke-linejoin:round;stroke-miterlimit:10;}
	.st3{fill:#F7B618;stroke:#000000;stroke-width:2;stroke-miterlimit:10;}
	.st4{enable-background:new    ;}
	.st5{fill:#FFFFFF;}
	.st6{fill:#EC344F;}
	.st7{fill:#0D84C0;}
	.st8{fill:#FBB030;}
	.st9{fill:#1C8A44;}
</style>
<g>
	<rect x="17.82" y="18.99" width="117" height="171"/>
	<path d="M134.32,19.49v170h-116v-170H134.32 M135.32,18.49h-118v172h118V18.49L135.32,18.49z"/>
</g>
<g>
	<rect x="135.82" y="190.99" width="117" height="171"/>
	<path d="M252.32,191.49v170h-116v-170H252.32 M253.32,190.49h-118v172h118V190.49L253.32,190.49z"/>
</g>
<path class="st0" d="M69.18,136.18c0,0,17.25-12.33,17.25-36.98S60.55,62.22,69.18,37.57c0,0-17.25,12.33-17.25,36.98
	S74.3,103.72,69.18,136.18z"/>
<path class="st1" d="M66.3,127.76c-1.14-21.48-19-38.47-19-38.47c8.63,20.74-16.37,40.72-16.37,61.46
	c0,20.74,17.25,31.12,17.25,31.12C39.73,161.33,67.39,148.46,66.3,127.76z"/>
<path class="st2" d="M98.11,162.63c6.73-7.54,10.16-15.51,11.76-22.83l0.01,0c0.02-0.11,0.04-0.21,0.06-0.32
	c0.4-1.88,0.68-3.72,0.85-5.49c3.52-32.53-22.56-51.66-22.56-51.66l0,0.01c-0.95-0.93-1.93-1.82-2.94-2.66c0,0,4.82,8.84,6.05,19.19
	c0.11,3.8-0.61,10.22-4.27,20.16c-1.99,4.49-4.8,9.13-8.72,13.52c-0.59,0.63-1.2,1.28-1.84,1.96c-0.01,0.01-0.02,0.02-0.03,0.03
	c0,0-7.94,7.77-10.38,11.9c-3.42,4.8-9.3,13.5-10.34,18.08c0,0,0,0.01,0,0.01c-1.91,4.47-3.17,9-3.47,13.38
	c-0.05,0.19-0.08,0.36-0.09,0.5c-0.08,2.56,0.08,7.06,0.08,7.06c1-4.81,6-6.01,19-8.42s22-9.62,22-9.62
	C95.07,165.86,96.66,164.25,98.11,162.63z"/>
<path class="st3" d="M112.3,116.94c0,0,15,42.08-34,64.92l29.88-0.5C108.17,181.36,135.3,159.02,112.3,116.94z"/>
<g>
	<path d="M78.35,346.91l11.72-139.13c0.1-1.23-0.87-2.28-2.1-2.28H64.53c-1.23,0-2.2,1.05-2.1,2.28l11.72,139.13
		C74.37,349.48,78.13,349.48,78.35,346.91z"/>
	<path d="M76.65,220.06l41.08-11.71c1.62-0.46,1.29-2.85-0.4-2.85H35.17c-1.69,0-2.02,2.39-0.4,2.85l41.08,11.71
		C76.11,220.13,76.39,220.13,76.65,220.06z"/>
</g>
<g class="st4">
	<path class="st5" d="M153.67,272.93c0-23.3,3.55-40.31,10.67-51.05c7.11-10.74,17.29-16.11,30.55-16.11
		c13.13,0,23.29,5.37,30.46,16.11c7.17,10.74,10.76,27.76,10.76,51.05s-3.59,40.31-10.76,51.05c-7.17,10.74-17.33,16.11-30.46,16.11
		c-13.26,0-23.44-5.37-30.55-16.11C157.22,313.24,153.67,296.22,153.67,272.93z M165.24,272.93c0,10.56,0.69,19.47,2.08,26.75
		c1.38,7.28,3.34,13.19,5.88,17.75c2.53,4.55,5.63,7.83,9.31,9.83c3.67,2,7.8,3,12.38,3c4.58,0,8.71-1,12.38-3
		c3.67-2,6.78-5.28,9.31-9.83c2.53-4.55,4.49-10.47,5.88-17.75c1.38-7.28,2.08-16.2,2.08-26.75c0-10.56-0.7-19.47-2.08-26.75
		c-1.39-7.28-3.34-13.2-5.88-17.75c-2.53-4.55-5.63-7.83-9.31-9.83c-3.68-2-7.8-3-12.38-3c-4.58,0-8.71,1-12.38,3
		c-3.68,2-6.78,5.28-9.31,9.83c-2.53,4.55-4.49,10.46-5.88,17.75C165.93,253.45,165.24,262.37,165.24,272.93z"/>
</g>
<g>
	<path d="M159.76,80.55c0.24-12.5,3.34-22.35,9.28-29.58c5.94-7.22,14.98-10.83,27.12-10.83c4.37,0,8.55,0.67,12.56,2
		c4,1.34,7.55,3.43,10.65,6.28c3.09,2.85,5.55,6.46,7.37,10.83c1.82,4.37,2.73,9.65,2.73,15.83c0,3.88-0.33,7.49-1,10.83
		c-0.67,3.34-1.82,6.58-3.46,9.74c-1.64,3.16-3.82,6.28-6.55,9.37c-2.73,3.09-6.16,6.34-10.28,9.74l-14.01,11.47
		c-3.4,2.79-6.37,5.43-8.92,7.92c-2.55,2.49-4.76,5.04-6.64,7.64c-1.88,2.61-3.4,5.31-4.55,8.1c-1.15,2.79-1.97,5.89-2.46,9.28
		h58.97v9.83h-71.34c0-5.34,0.61-10.25,1.82-14.74c1.21-4.49,2.94-8.7,5.19-12.65c2.24-3.94,5.03-7.74,8.37-11.38
		c3.34-3.64,7.19-7.28,11.56-10.92l13.83-11.65c6.43-5.46,11.01-10.62,13.74-15.47c2.73-4.85,4.1-10.37,4.1-16.56
		c0-8.61-2.13-15.17-6.37-19.66c-4.25-4.49-9.71-6.73-16.38-6.73c-7.4,0-13.1,2.52-17.11,7.55c-4,5.04-6.19,12.95-6.55,23.75H159.76
		z"/>
</g>
<path d="M252.32,19.49v170h-116v-170H252.32 M253.32,18.49h-118v172h118V18.49L253.32,18.49z"/>
<path d="M134.32,191.49v170h-116v-170H134.32 M135.32,190.49h-118v172h118V190.49L135.32,190.49z"/>
<g>
	<rect x="16.94" y="363.12" width="236.75" height="68.75"/>
	<path class="st5" d="M253.32,363.49v68h-236v-68H253.32 M254.07,362.74h-0.75h-236h-0.75v0.75v68v0.75h0.75h236h0.75v-0.75v-68
		V362.74L254.07,362.74z"/>
</g>
<g>
	<path class="st6" d="M47.73,420.32c-6.43,0-11.93-2.24-16.5-6.72c-4.57-4.48-6.85-10.16-6.85-17.03c0-6.88,2.28-12.54,6.85-17
		c4.57-4.46,10.19-6.69,16.87-6.69c4.84,0,9.15,1.14,12.94,3.43c3.78,2.29,6.57,5.58,8.37,9.88h-7.39
		c-2.78-5.24-7.41-7.86-13.91-7.86c-5.06,0-9.24,1.67-12.53,5.01c-3.29,3.34-4.94,7.76-4.94,13.27s1.65,9.94,4.94,13.31
		c3.29,3.36,7.39,5.04,12.3,5.04c4.91,0,8.85-1.39,11.83-4.17c2.98-2.78,4.71-6.54,5.21-11.29H45.68v-4.84h25.67v4.84
		c-0.63,6-3.11,10.98-7.46,14.92C59.54,418.35,54.16,420.32,47.73,420.32z"/>
	<path class="st7" d="M78.94,403.59v-30.24h6.18v30.24c0,3.85,1.02,6.73,3.06,8.63c2.04,1.91,4.85,2.86,8.43,2.86
		c3.58,0,6.41-0.95,8.47-2.86c2.06-1.9,3.09-4.78,3.09-8.63v-30.24h6.12v30.24c0,5.47-1.67,9.63-5.01,12.5
		c-3.34,2.87-7.57,4.3-12.7,4.3s-9.35-1.43-12.67-4.3C80.6,413.23,78.94,409.06,78.94,403.59z"/>
	<path class="st5" d="M129.2,385.79c0,1.7,0.47,3.11,1.41,4.23c0.94,1.12,2.15,1.95,3.63,2.49c1.48,0.54,3.12,1.01,4.94,1.41
		c1.81,0.4,3.63,0.86,5.44,1.38c1.81,0.52,3.46,1.18,4.94,1.98c1.48,0.81,2.69,2.02,3.63,3.63c0.94,1.61,1.41,3.61,1.41,5.98
		c0,3.63-1.39,6.79-4.17,9.47c-2.78,2.69-6.53,4.03-11.26,4.03c-4.73,0-8.57-1.09-11.52-3.26c-2.96-2.17-4.44-5.12-4.44-8.84h6.52
		c0.18,2.11,1.02,3.81,2.52,5.11c1.5,1.3,3.73,1.95,6.69,1.95c2.96,0,5.31-0.76,7.06-2.29c1.75-1.52,2.62-3.3,2.62-5.34
		c0-2.04-0.47-3.61-1.41-4.7c-0.94-1.1-2.15-1.92-3.63-2.45c-1.48-0.54-3.13-1-4.94-1.38c-1.81-0.38-3.63-0.84-5.44-1.38
		c-1.81-0.54-3.46-1.22-4.94-2.05c-1.48-0.83-2.69-2.06-3.63-3.7s-1.41-3.66-1.41-6.08c0-3.94,1.4-7.11,4.2-9.51
		c2.8-2.4,6.45-3.6,10.95-3.6c4.5,0,8.09,1.04,10.75,3.13c2.67,2.08,4.2,4.96,4.6,8.63h-6.79c-0.18-1.84-1.04-3.4-2.59-4.7
		c-1.55-1.3-3.63-1.95-6.25-1.95s-4.76,0.66-6.42,1.98C130.03,381.29,129.2,383.23,129.2,385.79z"/>
	<path class="st8" d="M161.59,378.26v-4.9h30.71v4.9H180v41.66h-6.12v-41.66H161.59z"/>
	<path class="st9" d="M221.67,420.39c-6.68,0-12.3-2.25-16.87-6.75c-4.57-4.5-6.85-10.19-6.85-17.07c0-6.88,2.28-12.54,6.85-17
		c4.57-4.46,10.19-6.69,16.87-6.69c6.67,0,12.29,2.23,16.83,6.69c4.55,4.46,6.82,10.14,6.82,17.03c0,6.9-2.27,12.59-6.82,17.07
		C233.95,418.15,228.34,420.39,221.67,420.39z M234.17,409.91c3.27-3.36,4.9-7.79,4.9-13.31s-1.64-9.93-4.9-13.27
		c-3.27-3.34-7.45-5.01-12.53-5.01c-5.09,0-9.27,1.67-12.57,5.01c-3.29,3.34-4.94,7.76-4.94,13.27s1.66,9.94,4.97,13.31
		c3.31,3.36,7.5,5.04,12.57,5.04C226.73,414.95,230.89,413.27,234.17,409.91z"/>
</g>
</svg>
